<mxfile host="app.diagrams.net" agent="Mozilla/5.0 (Windows NT 10.0; Win64; x64) AppleWebKit/537.36 (KHTML, like Gecko) Chrome/130.0.0.0 Safari/537.36" version="24.8.3">
  <diagram id="R2lEEEUBdFMjLlhIrx00" name="Page-1">
    <mxGraphModel dx="1167" dy="632" grid="1" gridSize="10" guides="1" tooltips="1" connect="1" arrows="1" fold="1" page="1" pageScale="1" pageWidth="850" pageHeight="1100" math="0" shadow="0" extFonts="Permanent Marker^https://fonts.googleapis.com/css?family=Permanent+Marker">
      <root>
        <mxCell id="0" />
        <mxCell id="1" parent="0" />
        <mxCell id="RnRT4OO264XmgmjiF1xj-3" value="" style="rounded=0;whiteSpace=wrap;html=1;fontFamily=Architects Daughter;fontSource=https%3A%2F%2Ffonts.googleapis.com%2Fcss%3Ffamily%3DArchitects%2BDaughter;" vertex="1" parent="1">
          <mxGeometry x="119" y="111" width="211" height="60" as="geometry" />
        </mxCell>
        <mxCell id="RnRT4OO264XmgmjiF1xj-4" value="" style="endArrow=none;html=1;rounded=0;fontFamily=Architects Daughter;fontSource=https%3A%2F%2Ffonts.googleapis.com%2Fcss%3Ffamily%3DArchitects%2BDaughter;" edge="1" parent="1">
          <mxGeometry width="50" height="50" relative="1" as="geometry">
            <mxPoint x="179" y="171" as="sourcePoint" />
            <mxPoint x="179" y="111" as="targetPoint" />
          </mxGeometry>
        </mxCell>
        <mxCell id="RnRT4OO264XmgmjiF1xj-6" value="&lt;font style=&quot;font-size: 34px;&quot;&gt;&lt;b&gt;Patient&lt;/b&gt;&lt;/font&gt;" style="text;html=1;align=center;verticalAlign=middle;resizable=0;points=[];autosize=1;strokeColor=none;fillColor=none;fontFamily=Architects Daughter;fontSource=https%3A%2F%2Ffonts.googleapis.com%2Fcss%3Ffamily%3DArchitects%2BDaughter;" vertex="1" parent="1">
          <mxGeometry x="105" y="60" width="130" height="50" as="geometry" />
        </mxCell>
        <mxCell id="RnRT4OO264XmgmjiF1xj-7" value="&lt;font style=&quot;font-size: 17px;&quot;&gt;&lt;b&gt;id&lt;/b&gt;&lt;/font&gt;" style="text;html=1;align=center;verticalAlign=middle;resizable=0;points=[];autosize=1;strokeColor=none;fillColor=none;fontStyle=4;fontFamily=Architects Daughter;fontSource=https%3A%2F%2Ffonts.googleapis.com%2Fcss%3Ffamily%3DArchitects%2BDaughter;" vertex="1" parent="1">
          <mxGeometry x="134" y="126" width="30" height="30" as="geometry" />
        </mxCell>
        <mxCell id="RnRT4OO264XmgmjiF1xj-8" value="&lt;font style=&quot;font-size: 17px;&quot;&gt;&lt;b&gt;DOB&lt;/b&gt;&lt;/font&gt;" style="text;html=1;align=center;verticalAlign=middle;resizable=0;points=[];autosize=1;strokeColor=none;fillColor=none;fontFamily=Architects Daughter;fontSource=https%3A%2F%2Ffonts.googleapis.com%2Fcss%3Ffamily%3DArchitects%2BDaughter;" vertex="1" parent="1">
          <mxGeometry x="189" y="126" width="60" height="30" as="geometry" />
        </mxCell>
        <mxCell id="RnRT4OO264XmgmjiF1xj-9" value="" style="endArrow=none;html=1;rounded=0;fontFamily=Architects Daughter;fontSource=https%3A%2F%2Ffonts.googleapis.com%2Fcss%3Ffamily%3DArchitects%2BDaughter;" edge="1" parent="1">
          <mxGeometry width="50" height="50" relative="1" as="geometry">
            <mxPoint x="260" y="171" as="sourcePoint" />
            <mxPoint x="260" y="111" as="targetPoint" />
          </mxGeometry>
        </mxCell>
        <mxCell id="RnRT4OO264XmgmjiF1xj-12" value="&lt;font style=&quot;font-size: 17px;&quot;&gt;&lt;b&gt;Name&lt;/b&gt;&lt;/font&gt;" style="text;html=1;align=center;verticalAlign=middle;resizable=0;points=[];autosize=1;strokeColor=none;fillColor=none;fontFamily=Architects Daughter;fontSource=https%3A%2F%2Ffonts.googleapis.com%2Fcss%3Ffamily%3DArchitects%2BDaughter;" vertex="1" parent="1">
          <mxGeometry x="260" y="126" width="70" height="30" as="geometry" />
        </mxCell>
        <mxCell id="RnRT4OO264XmgmjiF1xj-14" value="" style="rounded=0;whiteSpace=wrap;html=1;fontFamily=Architects Daughter;fontSource=https%3A%2F%2Ffonts.googleapis.com%2Fcss%3Ffamily%3DArchitects%2BDaughter;" vertex="1" parent="1">
          <mxGeometry x="119" y="241" width="131" height="60" as="geometry" />
        </mxCell>
        <mxCell id="RnRT4OO264XmgmjiF1xj-15" value="" style="endArrow=none;html=1;rounded=0;fontFamily=Architects Daughter;fontSource=https%3A%2F%2Ffonts.googleapis.com%2Fcss%3Ffamily%3DArchitects%2BDaughter;" edge="1" parent="1">
          <mxGeometry width="50" height="50" relative="1" as="geometry">
            <mxPoint x="179" y="301" as="sourcePoint" />
            <mxPoint x="179" y="241" as="targetPoint" />
          </mxGeometry>
        </mxCell>
        <mxCell id="RnRT4OO264XmgmjiF1xj-16" value="&lt;span style=&quot;font-size: 34px;&quot;&gt;&lt;b&gt;Consultant&lt;/b&gt;&lt;/span&gt;" style="text;html=1;align=center;verticalAlign=middle;resizable=0;points=[];autosize=1;strokeColor=none;fillColor=none;fontFamily=Architects Daughter;fontSource=https%3A%2F%2Ffonts.googleapis.com%2Fcss%3Ffamily%3DArchitects%2BDaughter;" vertex="1" parent="1">
          <mxGeometry x="103" y="190" width="190" height="50" as="geometry" />
        </mxCell>
        <mxCell id="RnRT4OO264XmgmjiF1xj-17" value="&lt;font style=&quot;font-size: 17px;&quot;&gt;&lt;b&gt;id&lt;/b&gt;&lt;/font&gt;" style="text;html=1;align=center;verticalAlign=middle;resizable=0;points=[];autosize=1;strokeColor=none;fillColor=none;fontStyle=4;fontFamily=Architects Daughter;fontSource=https%3A%2F%2Ffonts.googleapis.com%2Fcss%3Ffamily%3DArchitects%2BDaughter;" vertex="1" parent="1">
          <mxGeometry x="134" y="256" width="30" height="30" as="geometry" />
        </mxCell>
        <mxCell id="RnRT4OO264XmgmjiF1xj-20" value="&lt;font style=&quot;font-size: 17px;&quot;&gt;&lt;b&gt;Name&lt;/b&gt;&lt;/font&gt;" style="text;html=1;align=center;verticalAlign=middle;resizable=0;points=[];autosize=1;strokeColor=none;fillColor=none;fontFamily=Architects Daughter;fontSource=https%3A%2F%2Ffonts.googleapis.com%2Fcss%3Ffamily%3DArchitects%2BDaughter;" vertex="1" parent="1">
          <mxGeometry x="180" y="256" width="70" height="30" as="geometry" />
        </mxCell>
        <mxCell id="RnRT4OO264XmgmjiF1xj-21" value="" style="rounded=0;whiteSpace=wrap;html=1;fontFamily=Architects Daughter;fontSource=https%3A%2F%2Ffonts.googleapis.com%2Fcss%3Ffamily%3DArchitects%2BDaughter;" vertex="1" parent="1">
          <mxGeometry x="119" y="371" width="131" height="60" as="geometry" />
        </mxCell>
        <mxCell id="RnRT4OO264XmgmjiF1xj-22" value="" style="endArrow=none;html=1;rounded=0;fontFamily=Architects Daughter;fontSource=https%3A%2F%2Ffonts.googleapis.com%2Fcss%3Ffamily%3DArchitects%2BDaughter;" edge="1" parent="1">
          <mxGeometry width="50" height="50" relative="1" as="geometry">
            <mxPoint x="179" y="431" as="sourcePoint" />
            <mxPoint x="179" y="371" as="targetPoint" />
          </mxGeometry>
        </mxCell>
        <mxCell id="RnRT4OO264XmgmjiF1xj-23" value="&lt;span style=&quot;font-size: 34px;&quot;&gt;&lt;b&gt;Ward&lt;/b&gt;&lt;/span&gt;" style="text;html=1;align=center;verticalAlign=middle;resizable=0;points=[];autosize=1;strokeColor=none;fillColor=none;fontFamily=Architects Daughter;fontSource=https%3A%2F%2Ffonts.googleapis.com%2Fcss%3Ffamily%3DArchitects%2BDaughter;" vertex="1" parent="1">
          <mxGeometry x="108" y="320" width="110" height="50" as="geometry" />
        </mxCell>
        <mxCell id="RnRT4OO264XmgmjiF1xj-24" value="&lt;font style=&quot;font-size: 17px;&quot;&gt;&lt;b&gt;id&lt;/b&gt;&lt;/font&gt;" style="text;html=1;align=center;verticalAlign=middle;resizable=0;points=[];autosize=1;strokeColor=none;fillColor=none;fontStyle=4;fontFamily=Architects Daughter;fontSource=https%3A%2F%2Ffonts.googleapis.com%2Fcss%3Ffamily%3DArchitects%2BDaughter;" vertex="1" parent="1">
          <mxGeometry x="134" y="386" width="30" height="30" as="geometry" />
        </mxCell>
        <mxCell id="RnRT4OO264XmgmjiF1xj-25" value="&lt;font style=&quot;font-size: 17px;&quot;&gt;&lt;b&gt;Name&lt;/b&gt;&lt;/font&gt;" style="text;html=1;align=center;verticalAlign=middle;resizable=0;points=[];autosize=1;strokeColor=none;fillColor=none;fontFamily=Architects Daughter;fontSource=https%3A%2F%2Ffonts.googleapis.com%2Fcss%3Ffamily%3DArchitects%2BDaughter;" vertex="1" parent="1">
          <mxGeometry x="180" y="386" width="70" height="30" as="geometry" />
        </mxCell>
        <mxCell id="RnRT4OO264XmgmjiF1xj-26" value="" style="rounded=0;whiteSpace=wrap;html=1;fontFamily=Architects Daughter;fontSource=https%3A%2F%2Ffonts.googleapis.com%2Fcss%3Ffamily%3DArchitects%2BDaughter;" vertex="1" parent="1">
          <mxGeometry x="119" y="501" width="241" height="60" as="geometry" />
        </mxCell>
        <mxCell id="RnRT4OO264XmgmjiF1xj-27" value="" style="endArrow=none;html=1;rounded=0;fontFamily=Architects Daughter;fontSource=https%3A%2F%2Ffonts.googleapis.com%2Fcss%3Ffamily%3DArchitects%2BDaughter;" edge="1" parent="1">
          <mxGeometry width="50" height="50" relative="1" as="geometry">
            <mxPoint x="200" y="561" as="sourcePoint" />
            <mxPoint x="200" y="501" as="targetPoint" />
          </mxGeometry>
        </mxCell>
        <mxCell id="RnRT4OO264XmgmjiF1xj-28" value="&lt;span style=&quot;font-size: 34px;&quot;&gt;&lt;b&gt;Nurse&lt;/b&gt;&lt;/span&gt;" style="text;html=1;align=center;verticalAlign=middle;resizable=0;points=[];autosize=1;strokeColor=none;fillColor=none;fontFamily=Architects Daughter;fontSource=https%3A%2F%2Ffonts.googleapis.com%2Fcss%3Ffamily%3DArchitects%2BDaughter;" vertex="1" parent="1">
          <mxGeometry x="110" y="450" width="120" height="50" as="geometry" />
        </mxCell>
        <mxCell id="RnRT4OO264XmgmjiF1xj-29" value="&lt;font style=&quot;font-size: 17px;&quot;&gt;&lt;b&gt;Number&lt;/b&gt;&lt;/font&gt;" style="text;html=1;align=center;verticalAlign=middle;resizable=0;points=[];autosize=1;strokeColor=none;fillColor=none;fontStyle=4;fontFamily=Architects Daughter;fontSource=https%3A%2F%2Ffonts.googleapis.com%2Fcss%3Ffamily%3DArchitects%2BDaughter;" vertex="1" parent="1">
          <mxGeometry x="116" y="516" width="80" height="30" as="geometry" />
        </mxCell>
        <mxCell id="RnRT4OO264XmgmjiF1xj-30" value="&lt;font style=&quot;font-size: 17px;&quot;&gt;&lt;b&gt;Name&lt;/b&gt;&lt;/font&gt;" style="text;html=1;align=center;verticalAlign=middle;resizable=0;points=[];autosize=1;strokeColor=none;fillColor=none;fontFamily=Architects Daughter;fontSource=https%3A%2F%2Ffonts.googleapis.com%2Fcss%3Ffamily%3DArchitects%2BDaughter;" vertex="1" parent="1">
          <mxGeometry x="201" y="516" width="70" height="30" as="geometry" />
        </mxCell>
        <mxCell id="RnRT4OO264XmgmjiF1xj-31" value="" style="endArrow=none;html=1;rounded=0;fontFamily=Architects Daughter;fontSource=https%3A%2F%2Ffonts.googleapis.com%2Fcss%3Ffamily%3DArchitects%2BDaughter;" edge="1" parent="1">
          <mxGeometry width="50" height="50" relative="1" as="geometry">
            <mxPoint x="274" y="561" as="sourcePoint" />
            <mxPoint x="274" y="501" as="targetPoint" />
          </mxGeometry>
        </mxCell>
        <mxCell id="RnRT4OO264XmgmjiF1xj-32" value="&lt;font style=&quot;font-size: 17px;&quot;&gt;&lt;b&gt;Address&lt;/b&gt;&lt;/font&gt;" style="text;html=1;align=center;verticalAlign=middle;resizable=0;points=[];autosize=1;strokeColor=none;fillColor=none;fontFamily=Architects Daughter;fontSource=https%3A%2F%2Ffonts.googleapis.com%2Fcss%3Ffamily%3DArchitects%2BDaughter;" vertex="1" parent="1">
          <mxGeometry x="272" y="516" width="90" height="30" as="geometry" />
        </mxCell>
        <mxCell id="RnRT4OO264XmgmjiF1xj-33" value="" style="rounded=0;whiteSpace=wrap;html=1;fontFamily=Architects Daughter;fontSource=https%3A%2F%2Ffonts.googleapis.com%2Fcss%3Ffamily%3DArchitects%2BDaughter;" vertex="1" parent="1">
          <mxGeometry x="119" y="626" width="161" height="60" as="geometry" />
        </mxCell>
        <mxCell id="RnRT4OO264XmgmjiF1xj-34" value="" style="endArrow=none;html=1;rounded=0;fontFamily=Architects Daughter;fontSource=https%3A%2F%2Ffonts.googleapis.com%2Fcss%3Ffamily%3DArchitects%2BDaughter;" edge="1" parent="1">
          <mxGeometry width="50" height="50" relative="1" as="geometry">
            <mxPoint x="200" y="686" as="sourcePoint" />
            <mxPoint x="200" y="626" as="targetPoint" />
          </mxGeometry>
        </mxCell>
        <mxCell id="RnRT4OO264XmgmjiF1xj-35" value="&lt;font style=&quot;font-size: 17px;&quot;&gt;&lt;b&gt;Code&lt;/b&gt;&lt;/font&gt;" style="text;html=1;align=center;verticalAlign=middle;resizable=0;points=[];autosize=1;strokeColor=none;fillColor=none;fontStyle=4;fontFamily=Architects Daughter;fontSource=https%3A%2F%2Ffonts.googleapis.com%2Fcss%3Ffamily%3DArchitects%2BDaughter;" vertex="1" parent="1">
          <mxGeometry x="126" y="641" width="60" height="30" as="geometry" />
        </mxCell>
        <mxCell id="RnRT4OO264XmgmjiF1xj-36" value="&lt;font style=&quot;font-size: 17px;&quot;&gt;&lt;b&gt;Dosage&lt;/b&gt;&lt;/font&gt;" style="text;html=1;align=center;verticalAlign=middle;resizable=0;points=[];autosize=1;strokeColor=none;fillColor=none;fontFamily=Architects Daughter;fontSource=https%3A%2F%2Ffonts.googleapis.com%2Fcss%3Ffamily%3DArchitects%2BDaughter;" vertex="1" parent="1">
          <mxGeometry x="196" y="641" width="80" height="30" as="geometry" />
        </mxCell>
        <mxCell id="RnRT4OO264XmgmjiF1xj-39" value="&lt;span style=&quot;font-size: 34px;&quot;&gt;&lt;b&gt;Drug&lt;/b&gt;&lt;/span&gt;" style="text;html=1;align=center;verticalAlign=middle;resizable=0;points=[];autosize=1;strokeColor=none;fillColor=none;fontFamily=Architects Daughter;fontSource=https%3A%2F%2Ffonts.googleapis.com%2Fcss%3Ffamily%3DArchitects%2BDaughter;" vertex="1" parent="1">
          <mxGeometry x="113" y="575" width="100" height="50" as="geometry" />
        </mxCell>
        <mxCell id="RnRT4OO264XmgmjiF1xj-47" style="edgeStyle=orthogonalEdgeStyle;rounded=0;orthogonalLoop=1;jettySize=auto;html=1;exitX=0.25;exitY=1;exitDx=0;exitDy=0;entryX=0;entryY=0.5;entryDx=0;entryDy=0;" edge="1" parent="1" source="RnRT4OO264XmgmjiF1xj-40" target="RnRT4OO264XmgmjiF1xj-33">
          <mxGeometry relative="1" as="geometry" />
        </mxCell>
        <mxCell id="RnRT4OO264XmgmjiF1xj-40" value="" style="rounded=0;whiteSpace=wrap;html=1;fontFamily=Architects Daughter;fontSource=https%3A%2F%2Ffonts.googleapis.com%2Fcss%3Ffamily%3DArchitects%2BDaughter;" vertex="1" parent="1">
          <mxGeometry x="119" y="761" width="201" height="60" as="geometry" />
        </mxCell>
        <mxCell id="RnRT4OO264XmgmjiF1xj-41" value="" style="endArrow=none;html=1;rounded=0;fontFamily=Architects Daughter;fontSource=https%3A%2F%2Ffonts.googleapis.com%2Fcss%3Ffamily%3DArchitects%2BDaughter;" edge="1" parent="1">
          <mxGeometry width="50" height="50" relative="1" as="geometry">
            <mxPoint x="233.02" y="821" as="sourcePoint" />
            <mxPoint x="233.02" y="761" as="targetPoint" />
          </mxGeometry>
        </mxCell>
        <mxCell id="RnRT4OO264XmgmjiF1xj-42" value="&lt;font style=&quot;font-size: 17px;&quot;&gt;&lt;b&gt;Drug_Code&lt;/b&gt;&lt;/font&gt;" style="text;html=1;align=center;verticalAlign=middle;resizable=0;points=[];autosize=1;strokeColor=none;fillColor=none;fontStyle=0;fontFamily=Architects Daughter;fontSource=https%3A%2F%2Ffonts.googleapis.com%2Fcss%3Ffamily%3DArchitects%2BDaughter;" vertex="1" parent="1">
          <mxGeometry x="119" y="776" width="110" height="30" as="geometry" />
        </mxCell>
        <mxCell id="RnRT4OO264XmgmjiF1xj-43" value="&lt;font style=&quot;font-size: 17px;&quot;&gt;&lt;b&gt;Brand&lt;/b&gt;&lt;/font&gt;" style="text;html=1;align=center;verticalAlign=middle;resizable=0;points=[];autosize=1;strokeColor=none;fillColor=none;fontFamily=Architects Daughter;fontSource=https%3A%2F%2Ffonts.googleapis.com%2Fcss%3Ffamily%3DArchitects%2BDaughter;" vertex="1" parent="1">
          <mxGeometry x="239" y="776" width="70" height="30" as="geometry" />
        </mxCell>
        <mxCell id="RnRT4OO264XmgmjiF1xj-44" value="&lt;span style=&quot;font-size: 34px;&quot;&gt;&lt;b&gt;Drug_Brand&lt;/b&gt;&lt;/span&gt;" style="text;html=1;align=center;verticalAlign=middle;resizable=0;points=[];autosize=1;strokeColor=none;fillColor=none;fontFamily=Architects Daughter;fontSource=https%3A%2F%2Ffonts.googleapis.com%2Fcss%3Ffamily%3DArchitects%2BDaughter;" vertex="1" parent="1">
          <mxGeometry x="112" y="702" width="220" height="50" as="geometry" />
        </mxCell>
        <mxCell id="RnRT4OO264XmgmjiF1xj-45" value="" style="endArrow=none;dashed=1;html=1;dashPattern=1 3;strokeWidth=2;rounded=0;entryX=0.916;entryY=1.121;entryDx=0;entryDy=0;entryPerimeter=0;" edge="1" parent="1">
          <mxGeometry width="50" height="50" relative="1" as="geometry">
            <mxPoint x="135" y="806" as="sourcePoint" />
            <mxPoint x="220.75999999999993" y="805.63" as="targetPoint" />
          </mxGeometry>
        </mxCell>
        <mxCell id="RnRT4OO264XmgmjiF1xj-46" value="" style="endArrow=none;html=1;rounded=0;entryX=0.95;entryY=0.9;entryDx=0;entryDy=0;entryPerimeter=0;" edge="1" parent="1">
          <mxGeometry width="50" height="50" relative="1" as="geometry">
            <mxPoint x="130" y="812" as="sourcePoint" />
            <mxPoint x="304.95000000000005" y="812" as="targetPoint" />
          </mxGeometry>
        </mxCell>
      </root>
    </mxGraphModel>
  </diagram>
</mxfile>
